<mxfile host="65bd71144e">
    <diagram id="tzScB7RAXw2Mo_qHihB-" name="Page-1">
        <mxGraphModel dx="1078" dy="779" grid="1" gridSize="10" guides="1" tooltips="1" connect="1" arrows="1" fold="1" page="1" pageScale="1" pageWidth="850" pageHeight="1100" math="0" shadow="0">
            <root>
                <mxCell id="0"/>
                <mxCell id="1" parent="0"/>
                <mxCell id="2" value="CLASS ophalen keuken-type" style="swimlane;childLayout=stackLayout;resizeParent=1;resizeParentMax=0;startSize=20;html=1;" parent="1" vertex="1">
                    <mxGeometry x="60" y="50" width="710" height="540" as="geometry"/>
                </mxCell>
                <mxCell id="3" value="Controller" style="swimlane;startSize=20;html=1;" parent="2" vertex="1">
                    <mxGeometry y="20" width="120" height="520" as="geometry"/>
                </mxCell>
                <mxCell id="4" value="Business logic" style="swimlane;startSize=20;html=1;" parent="2" vertex="1">
                    <mxGeometry x="120" y="20" width="370" height="520" as="geometry"/>
                </mxCell>
                <mxCell id="5" value="Selecteer keuken" style="rounded=0;whiteSpace=wrap;html=1;" parent="4" vertex="1">
                    <mxGeometry x="10" y="40" width="120" height="60" as="geometry"/>
                </mxCell>
                <mxCell id="17" value="selecteer type" style="rounded=0;whiteSpace=wrap;html=1;" parent="4" vertex="1">
                    <mxGeometry x="10" y="144" width="120" height="60" as="geometry"/>
                </mxCell>
                <mxCell id="8" value="Model" style="swimlane;startSize=20;html=1;" parent="2" vertex="1">
                    <mxGeometry x="490" y="20" width="220" height="520" as="geometry"/>
                </mxCell>
                <mxCell id="9" value="keuken-type" style="swimlane;fontStyle=0;childLayout=stackLayout;horizontal=1;startSize=26;fillColor=none;horizontalStack=0;resizeParent=1;resizeParentMax=0;resizeLast=0;collapsible=1;marginBottom=0;html=1;" parent="8" vertex="1">
                    <mxGeometry x="40" y="40" width="140" height="104" as="geometry"/>
                </mxCell>
                <mxCell id="10" value="id" style="text;strokeColor=none;fillColor=none;align=left;verticalAlign=top;spacingLeft=4;spacingRight=4;overflow=hidden;rotatable=0;points=[[0,0.5],[1,0.5]];portConstraint=eastwest;whiteSpace=wrap;html=1;" parent="9" vertex="1">
                    <mxGeometry y="26" width="140" height="26" as="geometry"/>
                </mxCell>
                <mxCell id="11" value="record_type(K,T)" style="text;strokeColor=none;fillColor=none;align=left;verticalAlign=top;spacingLeft=4;spacingRight=4;overflow=hidden;rotatable=0;points=[[0,0.5],[1,0.5]];portConstraint=eastwest;whiteSpace=wrap;html=1;" parent="9" vertex="1">
                    <mxGeometry y="52" width="140" height="26" as="geometry"/>
                </mxCell>
                <mxCell id="12" value="omschrjiving" style="text;strokeColor=none;fillColor=none;align=left;verticalAlign=top;spacingLeft=4;spacingRight=4;overflow=hidden;rotatable=0;points=[[0,0.5],[1,0.5]];portConstraint=eastwest;whiteSpace=wrap;html=1;" parent="9" vertex="1">
                    <mxGeometry y="78" width="140" height="26" as="geometry"/>
                </mxCell>
                <mxCell id="15" style="edgeStyle=none;html=1;exitX=0;exitY=0.5;exitDx=0;exitDy=0;entryX=1;entryY=0.5;entryDx=0;entryDy=0;" parent="2" source="11" target="5" edge="1">
                    <mxGeometry relative="1" as="geometry">
                        <Array as="points">
                            <mxPoint x="330" y="90"/>
                        </Array>
                    </mxGeometry>
                </mxCell>
                <mxCell id="23" style="edgeStyle=none;html=1;exitX=0;exitY=0.5;exitDx=0;exitDy=0;entryX=1;entryY=0.5;entryDx=0;entryDy=0;startArrow=none;startFill=0;endArrow=classic;endFill=1;" parent="2" source="12" target="17" edge="1">
                    <mxGeometry relative="1" as="geometry">
                        <Array as="points">
                            <mxPoint x="350" y="190"/>
                        </Array>
                    </mxGeometry>
                </mxCell>
            </root>
        </mxGraphModel>
    </diagram>
</mxfile>